<svg width="16" height="16" viewBox="0 0 16 16" fill="none" xmlns="http://www.w3.org/2000/svg">
<g id="calendar" clip-path="url(#clip0_2_3101)">
<g id="Layer 2">
<g id="calendar_2">
<path id="Vector" d="M12 2.66683H11.3333V2.00016C11.3333 1.82335 11.2631 1.65378 11.1381 1.52876C11.013 1.40373 10.8435 1.3335 10.6667 1.3335C10.4899 1.3335 10.3203 1.40373 10.1953 1.52876C10.0702 1.65378 10 1.82335 10 2.00016V2.66683H6V2.00016C6 1.82335 5.92976 1.65378 5.80474 1.52876C5.67971 1.40373 5.51014 1.3335 5.33333 1.3335C5.15652 1.3335 4.98695 1.40373 4.86193 1.52876C4.7369 1.65378 4.66667 1.82335 4.66667 2.00016V2.66683H4C3.46957 2.66683 2.96086 2.87754 2.58579 3.25262C2.21071 3.62769 2 4.1364 2 4.66683V12.6668C2 13.1973 2.21071 13.706 2.58579 14.081C2.96086 14.4561 3.46957 14.6668 4 14.6668H12C12.5304 14.6668 13.0391 14.4561 13.4142 14.081C13.7893 13.706 14 13.1973 14 12.6668V4.66683C14 4.1364 13.7893 3.62769 13.4142 3.25262C13.0391 2.87754 12.5304 2.66683 12 2.66683ZM5.33333 11.3335C5.20148 11.3335 5.07259 11.2944 4.96295 11.2211C4.85332 11.1479 4.76787 11.0438 4.71741 10.922C4.66696 10.8001 4.65375 10.6661 4.67948 10.5368C4.7052 10.4074 4.76869 10.2887 4.86193 10.1954C4.95516 10.1022 5.07395 10.0387 5.20327 10.013C5.33259 9.98725 5.46664 10.0005 5.58846 10.0509C5.71027 10.1014 5.81439 10.1868 5.88765 10.2964C5.9609 10.4061 6 10.535 6 10.6668C6 10.8436 5.92976 11.0132 5.80474 11.1382C5.67971 11.2633 5.51014 11.3335 5.33333 11.3335ZM10.6667 11.3335H8C7.82319 11.3335 7.65362 11.2633 7.5286 11.1382C7.40357 11.0132 7.33333 10.8436 7.33333 10.6668C7.33333 10.49 7.40357 10.3204 7.5286 10.1954C7.65362 10.0704 7.82319 10.0002 8 10.0002H10.6667C10.8435 10.0002 11.013 10.0704 11.1381 10.1954C11.2631 10.3204 11.3333 10.49 11.3333 10.6668C11.3333 10.8436 11.2631 11.0132 11.1381 11.1382C11.013 11.2633 10.8435 11.3335 10.6667 11.3335ZM12.6667 7.3335H3.33333V4.66683C3.33333 4.49002 3.40357 4.32045 3.5286 4.19543C3.65362 4.0704 3.82319 4.00016 4 4.00016H4.66667V4.66683C4.66667 4.84364 4.7369 5.01321 4.86193 5.13823C4.98695 5.26326 5.15652 5.3335 5.33333 5.3335C5.51014 5.3335 5.67971 5.26326 5.80474 5.13823C5.92976 5.01321 6 4.84364 6 4.66683V4.00016H10V4.66683C10 4.84364 10.0702 5.01321 10.1953 5.13823C10.3203 5.26326 10.4899 5.3335 10.6667 5.3335C10.8435 5.3335 11.013 5.26326 11.1381 5.13823C11.2631 5.01321 11.3333 4.84364 11.3333 4.66683V4.00016H12C12.1768 4.00016 12.3464 4.0704 12.4714 4.19543C12.5964 4.32045 12.6667 4.49002 12.6667 4.66683V7.3335Z" fill="#434E58"/>
</g>
</g>
</g>
<defs>
<clipPath id="clip0_2_3101">
<rect width="16" height="16" fill="white"/>
</clipPath>
</defs>
</svg>
