<svg width="16" height="16" viewBox="0 0 16 16" fill="none" xmlns="http://www.w3.org/2000/svg">
<g id="clock " clip-path="url(#clip0_2_3094)">
<g id="Layer 2">
<g id="clock">
<path id="Vector" d="M8.00065 1.3335C6.68211 1.3335 5.39318 1.72449 4.29685 2.45703C3.20052 3.18957 2.34604 4.23077 1.84146 5.44894C1.33687 6.66711 1.20485 8.00756 1.46209 9.30077C1.71932 10.594 2.35426 11.7819 3.28661 12.7142C4.21896 13.6466 5.40685 14.2815 6.70005 14.5387C7.99326 14.796 9.3337 14.6639 10.5519 14.1594C11.7701 13.6548 12.8112 12.8003 13.5438 11.704C14.2763 10.6076 14.6673 9.31871 14.6673 8.00016C14.6673 7.12468 14.4949 6.25778 14.1599 5.44894C13.8248 4.6401 13.3338 3.90517 12.7147 3.28612C12.0956 2.66706 11.3607 2.176 10.5519 1.84097C9.74304 1.50593 8.87613 1.3335 8.00065 1.3335ZM10.6673 8.66683H8.00065C7.82384 8.66683 7.65427 8.59659 7.52925 8.47157C7.40423 8.34654 7.33399 8.17697 7.33399 8.00016V5.3335C7.33399 5.15669 7.40423 4.98712 7.52925 4.86209C7.65427 4.73707 7.82384 4.66683 8.00065 4.66683C8.17746 4.66683 8.34703 4.73707 8.47206 4.86209C8.59708 4.98712 8.66732 5.15669 8.66732 5.3335V7.3335H10.6673C10.8441 7.3335 11.0137 7.40373 11.1387 7.52876C11.2637 7.65378 11.334 7.82335 11.334 8.00016C11.334 8.17697 11.2637 8.34654 11.1387 8.47157C11.0137 8.59659 10.8441 8.66683 10.6673 8.66683Z" fill="#434E58"/>
</g>
</g>
</g>
<defs>
<clipPath id="clip0_2_3094">
<rect width="16" height="16" fill="white"/>
</clipPath>
</defs>
</svg>
